<?xml version="1.0" encoding="utf-8"?>
<!-- Generator: Adobe Illustrator 22.1.0, SVG Export Plug-In . SVG Version: 6.00 Build 0)  -->
<svg version="1.1" id="Layer_1" xmlns="http://www.w3.org/2000/svg" xmlns:xlink="http://www.w3.org/1999/xlink" x="0px" y="0px"
	 width="33px" height="33px" viewBox="0 0 33 33" style="enable-background:new 0 0 33 33;" xml:space="preserve">
<style type="text/css">
	.st0{fill:#BEBEBE;}
	.st1{display:none;}
</style>
<path class="st0" d="M28.86,16.342L25.22,9.94c-0.292-0.433-0.712-0.729-1.163-0.8c-0.3131-0.0582-0.6362,0.0193-0.889,0.213
	c-0.63,0.488-0.742,1.181-0.33,2.061l1.222,2.587l1.4,2.46c2.234,4.085,1.511,8.007-2.145,11.663c-0.26,0.26-0.526,0.49-0.797,0.707
	c1.42-0.084,2.881-0.683,4.292-2.094C30.632,22.914,30.375,18.861,28.86,16.342z"/>
<path class="st0" d="M22.608,27.417c3.352-3.35,3.998-6.775,1.978-10.469l-3.378-5.945c-0.292-0.432-0.712-0.728-1.163-0.8
	c-0.3135-0.0587-0.6371,0.0187-0.89,0.213c-0.63,0.49-0.742,1.182-0.33,2.061l1.72,3.638c0.1142,0.2526,0.0019,0.55-0.2507,0.6642
	c-0.1873,0.0846-0.4073,0.0465-0.5553-0.0962l-8.91-8.91c-0.5414-0.5005-1.386-0.4673-1.8865,0.0741
	C8.4698,8.3585,8.4696,9.1474,8.942,9.659l5.292,5.292c0.1918,0.1986,0.1863,0.5152-0.0123,0.707
	c-0.1938,0.1872-0.501,0.1872-0.6947,0l-5.292-5.292L6.743,8.874c-0.503-0.503-1.382-0.505-1.887,0
	c-0.5189,0.5216-0.5189,1.3644,0,1.886l1.493,1.492l5.292,5.292c0.1961,0.1937,0.198,0.5096,0.0043,0.7057
	c-0.0943,0.0955-0.2231,0.1489-0.3573,0.1483c-0.1328,0-0.2602-0.0529-0.354-0.147L5.642,12.96
	c-0.5219-0.5191-1.3651-0.5191-1.887,0c-0.5191,0.5219-0.5191,1.3651,0,1.887l2.23,2.228l3.322,3.324
	c0.1955,0.1942,0.1965,0.5102,0.0023,0.7057c-0.094,0.0946-0.2219,0.1477-0.3553,0.1473c-0.1327,0-0.2599-0.0525-0.354-0.146
	l-3.323-3.324c-0.5203-0.5208-1.3643-0.5212-1.8851-0.0009c-0.0003,0.0003-0.0006,0.0006-0.0009,0.0009
	c-0.2507,0.2497-0.3911,0.5892-0.39,0.943c0,0.356,0.138,0.691,0.39,0.943l6.396,6.397c3.528,3.53,8.86,5.313,12.821,1.353V27.417z"
	/>
<path class="st0" d="M12.73,8.26l5.68,5.68l-0.49-1.037c-0.518-1.107-0.426-2.13,0.224-2.89l-3.303-3.304
	c-0.5216-0.5189-1.3644-0.5189-1.886,0c-0.2508,0.25-0.3913,0.5899-0.39,0.944C12.565,7.87,12.632,8.073,12.73,8.26z"/>
<path class="st1" d="M27.517,28.444c-1.599,1.6-3.417,2.392-5.353,2.392c-0.349,0-0.7-0.03-1.058-0.082
	c-1.1331,0.5867-2.3911,0.891-3.667,0.887c-3.049,0-6.115-1.626-8.359-3.87l-6.396-6.397C2.2445,20.9376,1.9981,20.3434,2,19.724
	c-0.0021-1.1309,0.8092-2.0997,1.923-2.296l-0.875-0.875c-0.9082-0.9125-0.9082-2.3875,0-3.3
	c0.3373-0.3376,0.7702-0.5634,1.24-0.647l-0.139-0.139c-0.91-0.91-0.91-2.39,0-3.3c0.884-0.884,2.421-0.882,3.301,0l0.138,0.14
	c0.2278-1.2693,1.4414-2.1136,2.7107-1.8858c0.4686,0.0841,0.9003,0.3094,1.2373,0.6458l0.093,0.092
	c0.091-0.423,0.291-0.828,0.62-1.157c0.9119-0.9099,2.3881-0.9099,3.3,0l3.384,3.386c0.3965-0.1846,0.8396-0.2449,1.271-0.173
	c0.534,0.086,1.03,0.354,1.441,0.765c0.11-0.549,0.415-1.034,0.911-1.418c0.4715-0.3639,1.0743-0.5127,1.661-0.41
	c0.727,0.117,1.385,0.565,1.853,1.262l3.652,6.423C31.426,19.669,31.747,24.214,27.517,28.444z"/>
<polygon class="st0" points="14.235,2.6003 12.318,3.4823 14.688,6.3193 14.234,2.6003 "/>
<polygon class="st0" points="22.722,3.4773 20.794,2.6173 20.354,6.3143 "/>
<polygon class="st0" points="17.518,5.4093 16.496,2.1113 18.54,2.1113 "/>
</svg>
