<svg xmlns="http://www.w3.org/2000/svg" viewBox="0 0 750 422"><defs><style>.a{fill:#1a1a18;fill-rule:evenodd;}.b{fill:none;opacity:0.74;}</style></defs><g transform="translate(198 47.292)"><path class="a" d="M6.419,129.188c47.193-12.266,136.113-27.573,215.343-36.576a47.373,47.373,0,0,0-3.943,7.752,27.192,27.192,0,0,0-1.567,5.657c-12.957,1.129-26.06,2.321-39.143,3.5-58.245,5.251-124.852,14.256-167.7,25.395Z" transform="translate(-0.569 -8.211)"/><path class="a" d="M264.026,89.636c42.3-4.313,76.526-7.668,101.974-6.2l-5.076,15.274c-30.736-1.78-59.022,1.29-100.4,4.63l.018-.281c.118-1.922.36-3.857.619-5.763q.231-1.375.462-2.75c.132-.79.271-1.577.425-2.362C262.682,91.32,263.339,90.465,264.026,89.636Z" transform="translate(-23.099 -7.367)"/><path class="a" d="M112.315,65.7a30.457,30.457,0,0,0,.213,3.622,9.873,9.873,0,0,0,.823,3.1A5.259,5.259,0,0,0,115,74.484a3.639,3.639,0,0,0,2.666.546,7.451,7.451,0,0,0,3.385-1.258,13.068,13.068,0,0,0,2.772-2.588,20.116,20.116,0,0,0,2.21-3.453,31.962,31.962,0,0,0,1.7-3.951c-.474.125-.948.233-1.388.319s-.945.165-1.49.23a9.437,9.437,0,0,1-6.734-1.522,13.013,13.013,0,0,1-4.368-5.4c-.4,1.484-.755,2.929-1.017,4.327a20.258,20.258,0,0,0-.423,3.962ZM19.731,62.4q-1.447,5.722-2.876,12.369Q15.511,80.481,13.977,88c-1.034,5.032-2.122,10.368-3.3,16.068a3.44,3.44,0,0,0,1.648.525c.683.061,1.368.1,2.051.16a13.278,13.278,0,0,0,2.474-.078,27.755,27.755,0,0,0,9.4-3,36.378,36.378,0,0,0,8.787-6.436,36.6,36.6,0,0,0,6.734-9.263A30.549,30.549,0,0,0,45,74.441a15.226,15.226,0,0,0-.35-4.939A13.473,13.473,0,0,0,43,65.68a14.113,14.113,0,0,0-2.473-2.9,15.858,15.858,0,0,0-2.93-2.056,66.371,66.371,0,0,1-10.382,5.534,6.454,6.454,0,0,1-3.174.532,5.045,5.045,0,0,1-2.263-.874,4.541,4.541,0,0,1-1.437-1.62,5.069,5.069,0,0,1-.614-1.892Zm1.736-6.974c-.123.7-.281,1.4-.456,2.1s-.368,1.447-.562,2.224a13.065,13.065,0,0,1,4.158-2.963A16.89,16.89,0,0,1,30.2,55.012a24.168,24.168,0,0,1,2.788-.169c.878-.015,1.736.006,2.56.049a34.1,34.1,0,0,0,5.561-5.424,47.423,47.423,0,0,0,4.665-6.827,47.287,47.287,0,0,0,3.3-7.211,29.222,29.222,0,0,0,1.579-6.676q.63-7.149-2.4-10.24c-2.035-2.058-4.893-2.862-8.6-2.427a26.121,26.121,0,0,0-7.7,2.239Q31.138,21.08,29.9,25.2q-1.239,4.092-2.632,8.991c-.911,3.248-1.893,6.694-2.929,10.307q-1.526,5.416-2.876,10.932ZM55.492,76.593A29.888,29.888,0,0,1,51.37,89.407,38.516,38.516,0,0,1,42.5,99.659a47.928,47.928,0,0,1-12.189,7.134,53.9,53.9,0,0,1-13.979,3.59,33.791,33.791,0,0,1-4.98.235,37.414,37.414,0,0,1-4.158-.388c-1.227-.2-2.278-.4-3.137-.612a8.549,8.549,0,0,1-1.791-.561,3.631,3.631,0,0,1-1.49-1.105A3.731,3.731,0,0,1,.1,105.82a10.6,10.6,0,0,1-.1-1.266,5.16,5.16,0,0,1,.1-.995c.069-.342.175-.828.352-1.428s.4-1.433.666-2.5c.141-.63.668-2.622,1.6-5.993.928-3.355,2.034-7.465,3.332-12.3q1.973-7.284,4.278-15.762,2.289-8.5,4.455-16.466c1.439-5.31,2.753-10.094,3.911-14.387,1.175-4.276,2.019-7.444,2.579-9.493q-1.446,1.2-2.842,2.491c-.912.862-1.86,1.8-2.823,2.806a3.328,3.328,0,0,1-3.017,1.319,2.867,2.867,0,0,1-2.123-2.259c-.124-.669-.228-1.376-.3-2.123a8.713,8.713,0,0,1,.052-2.111A7.159,7.159,0,0,1,11,22.949a67.687,67.687,0,0,1,6.629-4.27q3.236-1.826,6.208-3.309a10.535,10.535,0,0,1,1.386-2.829,4.841,4.841,0,0,1,1.6-1.433,4.132,4.132,0,0,1,1.754-.4c.613,0,1.262.009,1.946.069A4.65,4.65,0,0,1,33.5,11.866c.965-.254,1.877-.449,2.771-.625s1.825-.32,2.773-.431a30.357,30.357,0,0,1,10.382.321,17.373,17.373,0,0,1,7.243,3.305,12.859,12.859,0,0,1,4.069,5.642,17.19,17.19,0,0,1,.91,7.293,26.679,26.679,0,0,1-1.788,7.245A43.383,43.383,0,0,1,55.9,42.273a61.046,61.046,0,0,1-5.753,7.569,59.9,59.9,0,0,1-7.3,6.963,23.737,23.737,0,0,1,5.648,3.649,21.841,21.841,0,0,1,4.122,4.865,20.391,20.391,0,0,1,2.367,5.58,18.1,18.1,0,0,1,.509,5.694Zm15.417-6.025a30.67,30.67,0,0,0,.21,3.626,9.91,9.91,0,0,0,.822,3.1,5.275,5.275,0,0,0,1.649,2.067,3.632,3.632,0,0,0,2.666.545,7.4,7.4,0,0,0,3.385-1.257,13.112,13.112,0,0,0,2.772-2.588,20.241,20.241,0,0,0,2.21-3.451,32.221,32.221,0,0,0,1.7-3.953c-.474.126-.948.233-1.386.32s-.949.162-1.493.228a9.451,9.451,0,0,1-6.734-1.524,13.011,13.011,0,0,1-4.366-5.4c-.4,1.484-.755,2.928-1.017,4.327a20.271,20.271,0,0,0-.42,3.96Zm6.575-18.855a14.627,14.627,0,0,1,3.35-3.427,7.95,7.95,0,0,1,3.737-1.528,2.377,2.377,0,0,1,2.121.838,7.858,7.858,0,0,1,1.439,2.6A16.843,16.843,0,0,1,88.9,53.86a21.908,21.908,0,0,1,0,4,8.538,8.538,0,0,1-.263,1.942c-.176.739-.368,1.57-.56,2.487-.351.093-.685.187-1.036.263-.334.073-.683.132-1.035.173a10.067,10.067,0,0,1-4.979-.379,5.494,5.494,0,0,1-2.615-2.111A7.664,7.664,0,0,1,77.38,57.11a28.619,28.619,0,0,1-.193-3.415,6.29,6.29,0,0,1,.3-1.983ZM94.847,65.279A39.094,39.094,0,0,1,92.077,72.9a27.578,27.578,0,0,1-4.156,6.345,21.378,21.378,0,0,1-5.455,4.5,17.069,17.069,0,0,1-6.629,2.166q-4.209.494-6.629-1.009a9.6,9.6,0,0,1-3.6-4.049,16.623,16.623,0,0,1-1.439-5.689c-.158-2.1-.245-4.092-.245-5.934a24.36,24.36,0,0,1,.457-4.368,44.9,44.9,0,0,1,1.28-4.993,42.8,42.8,0,0,1,2.1-5.174A28.748,28.748,0,0,1,70.8,49.816a9.847,9.847,0,0,1,1.912-3.295,13,13,0,0,1,2.981-2.56,17.39,17.39,0,0,1,3.649-1.781,17.962,17.962,0,0,1,3.788-.9,1.456,1.456,0,0,1,.579.036c.158.053.352.1.562.144a9.426,9.426,0,0,1,3.332.627,11.856,11.856,0,0,1,3.911,2.31,13.918,13.918,0,0,1,3.245,4.3,15.011,15.011,0,0,1,1.332,6.681q0,.817-.105,2.012t-.21,2.023a54.953,54.953,0,0,0,4.928-2.841c1.719-1.08,3.385-2.222,5-3.411q1.57-1.153,3-2.326.228-.5.474-1.011a28.823,28.823,0,0,1,3.033-4.883,9.857,9.857,0,0,1,1.913-3.293,13.04,13.04,0,0,1,2.981-2.562,17.543,17.543,0,0,1,3.649-1.779,17.97,17.97,0,0,1,3.788-.9,1.487,1.487,0,0,1,.579.037c.158.052.352.1.562.146a9.455,9.455,0,0,1,3.332.625,11.9,11.9,0,0,1,3.911,2.31,13.946,13.946,0,0,1,3.245,4.3A15.029,15.029,0,0,1,137.5,50.51q0,.814-.105,2.011t-.21,2.025a55.764,55.764,0,0,0,4.928-2.842q2.579-1.621,5-3.413c1.6-1.169,3.087-2.363,4.455-3.558q1.294-1.1,2.249-2.059.61-3.24,1.294-6.723c.859-4.381,1.771-8.627,2.736-12.7-1.175.279-2.333.538-3.507.816a27.777,27.777,0,0,1-3.176.584,24.12,24.12,0,0,1-6.225-.04,22.4,22.4,0,0,1-4.368-.975.966.966,0,0,1-.718-1.091,4.159,4.159,0,0,1,.613-1.616,5.878,5.878,0,0,1,1.3-1.485,2.692,2.692,0,0,1,1.387-.741q1.945-.02,4.209-.127a46.309,46.309,0,0,0,4.928-.526c1.3-.223,2.56-.478,3.755-.758s2.384-.579,3.542-.926q1.34-5.1,2.63-8.885a24.454,24.454,0,0,1,2.3-5.357,2.873,2.873,0,0,1,1.4-1.042,12.7,12.7,0,0,1,2.3-.8A10.956,10.956,0,0,1,170.58,0a2.268,2.268,0,0,1,1.647.579c.334.521.475,1.907.4,4.178a58.235,58.235,0,0,1-1.122,8.762,57.813,57.813,0,0,1,7.647-.445c2.227.054,4.138.163,5.717.362a27.387,27.387,0,0,1,3.789.677c.965.271,1.683.433,2.157.519a.89.89,0,0,1,.771.944,4.127,4.127,0,0,1-.3,1.717,3.986,3.986,0,0,1-1.193,1.632,2.364,2.364,0,0,1-1.841.637,16.316,16.316,0,0,1-2.315-.149,28.827,28.827,0,0,0-3.087-.145c-1.193,0-2.613.044-4.262.1s-3.56.209-5.754.466c-.4.047-.876.12-1.384.215s-1.053.177-1.6.24c-.279,1.121-.526,2.238-.772,3.318a35.524,35.524,0,0,1-.965,3.464q-1.34,4.263-3.086,9.308-1.554,4.392-3.7,10.081T156.5,58.64a15.633,15.633,0,0,0,.158,6.718,6.664,6.664,0,0,0,1.913,3.124,4.823,4.823,0,0,0,3.278.842,6.78,6.78,0,0,0,3.755-1.529,31.422,31.422,0,0,0,4.577-3.976c1.561-1.622,3.157-3.387,4.769-5.279,1.615-1.909,3.105-3.768,4.473-5.558,1.006-1.331,1.926-2.565,2.746-3.7.077-.476.154-.955.236-1.436a82.814,82.814,0,0,1,2.121-9.141,21.727,21.727,0,0,1,2.912-6.6,4.656,4.656,0,0,1,1.964-1.266c.965-.376,1.948-.72,2.982-1.017a23.349,23.349,0,0,1,2.823-.629,6.235,6.235,0,0,1,1.492-.141,8.759,8.759,0,0,1-.509,2.235c-.421,1.417-.93,3.09-1.542,5.005s-1.281,3.9-1.966,5.931-1.193,3.684-1.543,4.97c-.332,1.266-.755,2.7-1.227,4.3s-.913,3.159-1.28,4.675a30.175,30.175,0,0,0-.773,4.248,5.224,5.224,0,0,0,.317,2.944,3.485,3.485,0,0,0,1.122,1.57,2.028,2.028,0,0,0,1.333.3c1.369-.16,3.105-1.12,5.191-2.873a67.711,67.711,0,0,0,6.367-6.15c2.07-2.246,4.01-4.51,5.791-6.788a32.774,32.774,0,0,1,1.242-4.3,40.257,40.257,0,0,1,4.929-9.471,32.377,32.377,0,0,1,7.05-7.355,16.6,16.6,0,0,1,8.068-3.474,7.592,7.592,0,0,1,4.316.58,8.492,8.492,0,0,1,2.875,2.275,10.166,10.166,0,0,1,1.7,3.1,20.069,20.069,0,0,1,.772,2.98c.124-.838.263-1.7.4-2.608.141-.771.279-1.612.4-2.521.141-.91.279-1.769.42-2.609a5.913,5.913,0,0,1,1.386-.989,11.191,11.191,0,0,1,1.6-.7,17.914,17.914,0,0,1,1.841-.533,13.7,13.7,0,0,1,1.754-.1,2.684,2.684,0,0,1,2.261.855c-1.928,6.541-3.3,11.42-4.121,14.673-.473,1.829-.841,3.415-1.121,4.762-.281.981-.667,2.5-1.175,4.558-.527,2.045-1.123,4.413-1.808,7.089q-1.025,4.04-2.157,8.636c-.755,3.072-1.472,6.068-2.157,9.042,1.508-1.686,3.14-3.492,4.876-5.415,1.754-1.908,3.507-3.9,5.3-5.972s3.544-4.154,5.3-6.324q2.543-3.152,4.77-6.232.128-1.8.4-3.725c.351-2.339.754-4.509,1.244-6.513.474-2.02.9-3.717,1.282-5.132.368-1.429.631-2.3.772-2.67a22.182,22.182,0,0,1,2.42-5.475,8.851,8.851,0,0,1,4.156-3.523c.684-.2,1.4-.428,2.157-.656a17.251,17.251,0,0,1,1.894-.329,4.8,4.8,0,0,1,1.807.1c-1.858,4.936-3.313,9.054-4.367,12.318q-1.6,4.922-2.419,8a36.041,36.041,0,0,0-1.123,5.57c-.352,3.127-.069,5.425.806,6.9.893,1.475,2.719,2.049,5.455,1.727a9.061,9.061,0,0,0,5.14-2.622,25.752,25.752,0,0,0,4.524-5.707,17.585,17.585,0,0,1-.315-3.365,38.009,38.009,0,0,1,.562-6.486c.386-2.132.824-4.131,1.351-6.016a51.11,51.11,0,0,1,1.63-5.067c.6-1.509,1.088-2.708,1.491-3.579a8.533,8.533,0,0,1,2.069-3.278,7.36,7.36,0,0,1,2.981-1.017A8.3,8.3,0,0,1,292,18.6a6.073,6.073,0,0,1,.965.044c.824.114,1.244.468,1.244,1.1,0,1.087-.069,2.744-.21,4.954a33.066,33.066,0,0,1-1.229,6.931c-.49,1.969-.947,3.655-1.4,5.041-.438,1.385-.859,2.557-1.28,3.536a15.246,15.246,0,0,1-1.228,2.407c-.421.627-.788,1.214-1.139,1.73.141,2.035.315,3.662.525,4.866a9.3,9.3,0,0,0,.773,2.732,2.29,2.29,0,0,0,1.121,1.2,2.87,2.87,0,0,0,1.492.193,6.939,6.939,0,0,0,3.385-1.783,37.723,37.723,0,0,0,4.069-3.968q2.1-2.354,4.209-5.125,1.234-1.623,2.342-3.138a30.591,30.591,0,0,1,2.5-8.219,47.7,47.7,0,0,1,5.455-9.234,36.98,36.98,0,0,1,7.3-7.331,16.976,16.976,0,0,1,8.157-3.521c2.614-.306,4.49.121,5.665,1.282a5.75,5.75,0,0,1,1.543,4.659,16.355,16.355,0,0,1-1.806,6.07,28.532,28.532,0,0,1-3.543,5.239,43.68,43.68,0,0,1-4.368,4.426c-1.543,1.339-3,2.581-4.366,3.688-1.508,1.213-2.947,2.364-4.315,3.436-1.368,1.091-2.577,2.075-3.6,2.949a10.542,10.542,0,0,0,.913,4.207,7.369,7.369,0,0,0,2.07,2.58,6.336,6.336,0,0,0,2.823,1.211,10.913,10.913,0,0,0,3.228.077,16.176,16.176,0,0,0,7.3-3.07,59.39,59.39,0,0,0,7.454-6.208,95.115,95.115,0,0,0,6.788-7.325c2.088-2.508,3.824-4.676,5.192-6.468a3.111,3.111,0,0,1,1.49-1.157,1.379,1.379,0,0,1,1.229.066,1.278,1.278,0,0,1,.456,1.174,4.171,4.171,0,0,1-.72,2.084,93.086,93.086,0,0,1-6.979,9.607,77.068,77.068,0,0,1-8.279,8.587,52.907,52.907,0,0,1-8.945,6.436A23.334,23.334,0,0,1,319.4,57.68a12.332,12.332,0,0,1-4.894-.512,11.921,11.921,0,0,1-4.771-2.771,13.874,13.874,0,0,1-3.436-5.453,14.015,14.015,0,0,1-.718-2.856q-1.459,1.96-3,3.8a53.352,53.352,0,0,1-6.928,6.971,13.1,13.1,0,0,1-6.576,3.247,4.827,4.827,0,0,1-4.368-1.381,13.968,13.968,0,0,1-2.737-5.185,21.387,21.387,0,0,1-5.541,6.353,14.376,14.376,0,0,1-7.085,2.85,13.606,13.606,0,0,1-6.385-.493,9.14,9.14,0,0,1-3.842-2.567,9.764,9.764,0,0,1-1.964-3.68c-.11-.408-.206-.808-.283-1.2l-.786,1.115c-1.3,1.836-2.649,3.678-4.052,5.509-1.4,1.849-2.823,3.683-4.279,5.486q-2.157,2.726-4.1,5.007-2.052,2.293-4.525,4.9a55.249,55.249,0,0,0-4.824,5.972c-.28,1.33-.49,2.529-.666,3.567-.175,1.056-.334,1.986-.474,2.828-.332,2.44-.56,4.5-.666,6.2s-.141,3.174-.141,4.436.017,2.437.088,3.482c.07,1.061.1,2.161.1,3.336a23.283,23.283,0,0,1-.246,5.169c-.245.974-1.051,1.563-2.421,1.723a5.4,5.4,0,0,1-2.665-.616,11.156,11.156,0,0,1-3.192-2.2,12.192,12.192,0,0,1-2.614-3.69,11.952,11.952,0,0,1-1.087-5.222,21.125,21.125,0,0,1,1.543-7.828,42.747,42.747,0,0,1,4.1-7.832c.49-1.776,1.016-3.75,1.6-5.941.579-2.207,1.175-4.452,1.806-6.753q.921-3.425,1.841-6.935c.613-2.333,1.193-4.525,1.753-6.589-.753,1.123-1.578,2.255-2.471,3.378a24.441,24.441,0,0,1-2.877,3.11,18.325,18.325,0,0,1-3.28,2.4,9.988,9.988,0,0,1-3.7,1.207c-3.226.381-5.735.009-7.506-1.08a10.4,10.4,0,0,1-3.963-4.145,14.588,14.588,0,0,1-1.544-5.327q-.125-1.46-.188-2.639-1.77,2.2-3.653,4.321a74.479,74.479,0,0,1-7.034,7.052c-2.3,1.988-4.175,3.088-5.612,3.327a7.875,7.875,0,0,1-3.438-.157,9.367,9.367,0,0,1-3.086-1.479,9.029,9.029,0,0,1-2.3-2.517,6.59,6.59,0,0,1-1.035-3.213,38.561,38.561,0,0,1,0-7.033l.01-.137q-3.093,4.473-6.5,8.5a60.55,60.55,0,0,1-7.19,7.369c-2.333,2-4.28,3.083-5.858,3.268a10.41,10.41,0,0,1-5.648-.669,9.012,9.012,0,0,1-3.542-2.88,11.207,11.207,0,0,1-1.807-4.049,13.058,13.058,0,0,1-.3-4.227c.069-1.112.3-3.1.717-5.993s.948-6.25,1.632-10.066l.012-.065q-1.7,1.61-3.8,3.44c-1.912,1.662-4.015,3.313-6.261,4.963a37.035,37.035,0,0,1-6.489,3.833,39.148,39.148,0,0,1-2.771,7.622,27.577,27.577,0,0,1-4.158,6.347,21.406,21.406,0,0,1-5.453,4.5,17.086,17.086,0,0,1-6.63,2.166q-4.208.5-6.629-1.009a9.6,9.6,0,0,1-3.595-4.049,16.6,16.6,0,0,1-1.439-5.689c-.158-2.1-.246-4.094-.246-5.934a24.267,24.267,0,0,1,.457-4.368q.232-1.2.549-2.442c-1.565,1.3-3.242,2.6-5.006,3.894a36.911,36.911,0,0,1-6.489,3.834Zm24.046-18.438a14.587,14.587,0,0,1,3.35-3.429,7.955,7.955,0,0,1,3.737-1.526,2.378,2.378,0,0,1,2.121.837,7.918,7.918,0,0,1,1.439,2.6,16.734,16.734,0,0,1,.772,3.663,21.887,21.887,0,0,1,0,4,8.557,8.557,0,0,1-.263,1.942c-.177.74-.368,1.569-.562,2.487-.351.094-.684.186-1.036.263a10.318,10.318,0,0,1-1.034.174,10.1,10.1,0,0,1-4.981-.378,5.49,5.49,0,0,1-2.613-2.113,7.648,7.648,0,0,1-1.034-3.122,28.628,28.628,0,0,1-.193-3.416,6.293,6.293,0,0,1,.3-1.981Zm82.73-38.3a7.354,7.354,0,0,0,.263-2.4,6.963,6.963,0,0,0-.473-2.365,3.52,3.52,0,0,0-1.176-1.6,2.03,2.03,0,0,0-1.895-.25,8.073,8.073,0,0,0-2.682,1.7,12.4,12.4,0,0,0-2.562,3.2,6.625,6.625,0,0,0-.928,3.7,4.252,4.252,0,0,0,2.261,3.276,2,2,0,0,0,1.842.187,7.093,7.093,0,0,0,2.21-1.137,9.4,9.4,0,0,0,1.964-1.968,7.084,7.084,0,0,0,1.175-2.349Zm14.591,48.128a10.24,10.24,0,0,0,.773,4.522,4.978,4.978,0,0,0,1.84,2.2,4.117,4.117,0,0,0,2.21.618c.754-.02,1.368-.055,1.842-.112a7.3,7.3,0,0,0,4.226-2.3,24.328,24.328,0,0,0,3.755-4.914,43.58,43.58,0,0,0,2.981-6.157,42.589,42.589,0,0,0,1.894-6.027c.211-1.059.386-1.993.562-2.839s.332-1.547.473-2.107c-1.316.277-2.21.119-2.684-.509a6.625,6.625,0,0,1-.824-3.5,14.177,14.177,0,0,0-.193-2.187,6.82,6.82,0,0,0-.719-2.072A3.868,3.868,0,0,0,231,29.846a3,3,0,0,0-2.051-.374,7.867,7.867,0,0,0-4.981,3.041,27,27,0,0,0-4.05,6.757,43.719,43.719,0,0,0-2.736,8.635,42.576,42.576,0,0,0-.966,8.76ZM326.166,17.211a5.994,5.994,0,0,0-2.929,1.572,18.087,18.087,0,0,0-3.332,3.935,36.257,36.257,0,0,0-5.245,13.93c.824-.711,1.719-1.448,2.665-2.207q1.447-1.144,2.894-2.447a34.614,34.614,0,0,0,6.157-6.686,11.705,11.705,0,0,0,1.947-4.65,4.032,4.032,0,0,0-.4-2.776A1.784,1.784,0,0,0,326.166,17.211Z" transform="translate(0 0)"/><rect class="b" width="750" height="422" transform="translate(-198 -47.292)"/></g></svg>