<?xml version="1.0" encoding="utf-8"?>
<!-- Generator: Adobe Illustrator 22.1.0, SVG Export Plug-In . SVG Version: 6.00 Build 0)  -->
<svg version="1.1" id="Layer_1" xmlns="http://www.w3.org/2000/svg" xmlns:xlink="http://www.w3.org/1999/xlink" x="0px" y="0px"
	 width="300px" height="300px" viewBox="0 0 300 300" style="enable-background:new 0 0 300 300;" xml:space="preserve">
<g transform="translate(0.000000,700.000000) scale(0.100000,-0.100000)">
	<path d="M1738.6534,6739.4111c-0.4546-0.4546-16.3654-2.2729-35.0038-3.6367c-37.7314-3.1821-54.0969-5.4551-89.5554-12.2739
		c-13.1832-2.7275-24.5481-4.5459-25.0027-4.0913c-0.9092,0.4546-6.819-1.3638-14.0925-4.0913
		c-10.0011-3.6372-15.9108-3.1826-29.5487,4.0913c-34.5492,17.729-103.6478,21.3657-133.6511,7.2734
		c-22.2751-10.4556-32.2762-22.2754-52.2784-61.3706l-17.2747-33.1855l-72.7354-39.5498
		c-131.3781-70.9165-203.2042-118.6494-215.0237-141.3789c-9.5465-20.0024-10.9103-110.9214-1.3638-137.7427
		c6.8188-20.4565,24.5481-38.186,42.2773-41.8228c25.912-5.9097,40.0044,1.8184,91.8284,51.8237
		c27.7303,26.3667,57.7336,54.5518,66.8256,61.8252c8.6373,7.728,20.4568,17.2744,25.9119,22.2754l9.5465,8.1826l-9.0919-30.9126
		c-4.5459-17.2749-14.547-53.6421-22.2751-81.3726c-7.2736-27.2759-37.7314-140.9248-68.1893-252.3008
		s-58.1882-213.6597-61.825-227.2979c-9.5465-35.4585-19.5476-72.2808-25.0028-90.9189
		c-5.9098-21.8208-36.3677-131.833-39.0952-143.1978c-1.3638-5.0005-25.0028-91.8281-52.2785-193.2031
		c-27.7303-101.3745-50.9147-187.748-51.8239-191.8394c-3.6368-15.9106-6.3643-25.9121-40.459-151.3804
		c-19.093-70.0078-42.2774-156.8354-51.8239-193.2031s-24.0936-90.4644-32.2763-120.4678
		c-29.0941-106.8301-14.0925-160.4722,50.4601-180.4746c92.7375-28.1846,224.1157-35.9131,331.4002-19.5474
		c255.4828,40.0044,482.7805,155.0171,634.1609,320.9443c38.6406,42.2773,45.9142,51.3696,78.1904,100.0112
		c54.5515,82.2817,82.7365,151.3804,103.6478,254.5732c21.366,105.4663,4.0913,211.3872-50.4601,305.4883
		c-24.0936,41.3682-30.4579,49.5513-72.2808,92.2832c-37.7314,38.186-70.0077,62.7339-114.5581,86.8276l-32.7308,17.7295
		l28.1849,24.0933c226.8431,194.1123,383.224,457.3232,387.3156,650.5264c2.2729,100.4658-24.5483,175.4741-83.6458,235.9351
		c-57.2791,58.1885-140.9246,95.0107-243.6632,107.7393C1830.4818,6738.502,1740.4718,6741.2295,1738.6534,6739.4111z
		 M1799.1147,6611.6699c80.918-26.3667,118.1948-69.5532,134.1057-157.29c5.4551-29.0942,5.4551-107.7393,0.4546-145.4707
		c-3.6368-25.9121-25.4574-102.2842-37.7314-130.0142c-5.9098-13.1836-10.4557-26.3667-10.4557-28.6396
		c0-8.1826-51.824-110.9214-76.3721-151.3804c-36.3677-59.5522-87.7371-125.9229-134.1057-173.6558
		c-62.2797-64.0977-61.8251-63.6431-137.288-66.3706c-75.9175-2.7275-107.2845-10.0015-170.4733-38.6406
		c-25.0028-11.3652-64.5526-36.8223-80.9181-52.7334l-15.0016-14.0923l2.7275,15.4561c1.3638,8.6372,3.6367,17.2749,4.5459,18.6387
		c1.3638,1.8184,3.1823,11.3647,5.0006,20.4565c3.6367,25.0029,3.6367,25.0029,26.3666,113.6489
		c11.3649,45.0049,34.0946,129.1055,50.4601,186.3843c16.3655,57.7339,30.4579,108.6484,31.8217,113.6489
		s5.9098,22.2754,10.9103,38.6406c5.0006,16.3657,22.7299,76.8267,39.0952,134.106
		c16.8201,57.7334,40.9137,138.1968,53.1877,179.5649c12.7286,41.3682,23.6389,79.0996,25.0028,84.5547
		c2.2729,9.0923,29.0941,21.8208,80.0088,38.186C1666.8274,6617.5796,1758.6556,6624.3984,1799.1147,6611.6699z
		 M1665.9182,5619.7422c22.2751-13.6377,33.1854-23.1846,64.0979-55.0059c31.3672-32.2764,59.0975-82.2822,71.8262-129.5601
		c9.5465-36.8223,9.5465-101.8291-0.4546-168.2002c-6.819-46.3687-29.5487-120.0132-53.6423-171.3828
		c-118.1948-256.3916-392.316-447.7764-625.5236-437.3208c-31.3671,1.8184-68.6439,10.001-68.6439,15.4561
		c0,1.8184,6.3643,33.6401,14.0924,70.917s15.0017,72.7354,15.9109,79.0996c2.2729,10.9102,45.9142,221.3882,49.5509,238.6626
		c1.3638,5.001,5.4552,24.5483,9.0919,43.187c3.6367,18.6382,7.7281,38.186,8.6373,43.1865
		c1.3638,5.0005,8.6373,37.7314,16.3655,72.7354c29.0941,126.832,42.2773,186.3838,47.278,213.6597
		c0.4546,2.7275,9.0919,38.186,18.6384,79.0996l17.7291,74.5537l8.6373-20.002c24.0936-56.8247,71.3716-81.3726,131.3782-67.7349
		c29.5487,6.8188,144.1068,62.2798,205.9318,99.5562c25.0028,15.002,47.7325,27.2759,50.0056,27.2759
		C1649.5527,5628.3794,1657.7355,5624.2881,1665.9182,5619.7422z"/>
	<path d="M1990.0449,4535.9863c-1.3639-1.3638-20.4569-3.6367-42.2775-5.4551c-21.8206-1.3638-43.6411-3.6372-47.7325-4.5464
		c-4.0913-0.4546-24.0935-2.7275-44.0957-4.0913c-20.0023-1.8184-55.9153-5.9097-79.5543-9.5464
		c-23.6389-3.1821-53.1876-7.2734-65.9164-9.0918c-31.8217-4.0913-50.9147-6.8188-79.5542-11.3647
		c-13.6378-2.2734-32.2762-5.4556-40.9136-6.8193c-13.6379-2.2729-46.8234-8.1826-100.0111-17.729
		c-86.8278-15.4561-260.0287-57.7339-361.4034-87.2822c-63.1888-18.6387-215.933-69.5532-222.7519-74.0991
		c-2.273-1.8184-16.3655-7.2734-30.4579-11.8198c-14.5471-5.0005-26.3665-11.3647-26.3665-14.0923
		c0-3.1821,7.2735-19.5474,16.3654-36.8223c9.0919-16.8198,21.8206-40.9136,28.1849-53.6421
		c6.3644-12.2744,13.6379-25.0029,15.9108-28.1851c2.7276-3.6367,17.2747-0.4546,54.5515,12.7285
		c60.4612,20.9116,186.3842,57.7339,263.6655,77.2813c83.6456,20.9116,91.3737,22.73,98.6472,24.5483
		c65.4618,14.5469,118.1949,25.9121,127.2869,27.7305c6.3643,0.9092,20.4568,4.0913,31.8217,6.3643s25.912,5.4551,33.1854,6.3643
		c13.1833,2.2729,57.2791,10.4556,75.9175,14.0923c5.9098,1.3638,19.093,3.1821,29.5487,4.5459
		c10.0011,1.3638,21.3661,3.6372,25.0028,4.5464s15.0016,2.7275,25.0028,4.0913c10.0011,1.8184,23.1843,3.6367,29.5487,5.0005
		c6.3643,1.3638,18.6384,3.1821,27.2756,4.0913c8.6373,1.3638,41.3683,5.4551,72.7354,9.5464
		c61.3704,8.1826,70.0077,9.0918,125.0138,13.6382c20.0022,1.8184,39.5498,4.0913,43.1866,5.0005
		c3.6367,0.4546,10.9103,1.3638,15.9108,1.3638c8.6373,0.4546,9.0919,3.1821,7.7281,74.0991
		C1994.1362,4532.3496,1993.6816,4539.623,1990.0449,4535.9863z"/>
</g>
</svg>
