<?xml version="1.0" standalone="no"?>
<!DOCTYPE svg PUBLIC "-//W3C//DTD SVG 20010904//EN"
 "http://www.w3.org/TR/2001/REC-SVG-20010904/DTD/svg10.dtd">
<svg version="1.0" xmlns="http://www.w3.org/2000/svg"
 width="700.000000pt" height="700.000000pt" viewBox="0 0 700.000000 700.000000"
 preserveAspectRatio="xMidYMid meet">
<metadata>
Created by potrace 1.11, written by Peter Selinger 2001-2013
</metadata>
<g transform="translate(0.000000,700.000000) scale(0.100000,-0.100000)"
fill="#000000" stroke="none">
<path d="M3895 6374 c-55 -7 -134 -20 -175 -28 -73 -15 -78 -15 -130 5 -67 26
-207 36 -267 20 -60 -17 -92 -47 -146 -144 l-48 -86 -167 -92 c-270 -150 -440
-257 -485 -306 -37 -42 -46 -278 -13 -358 20 -47 71 -85 114 -85 52 0 90 27
256 179 162 150 181 164 167 129 -5 -13 -37 -127 -71 -253 -34 -127 -191 -707
-350 -1290 -540 -1987 -652 -2412 -658 -2502 -12 -194 46 -248 323 -299 78
-14 149 -18 320 -18 199 0 233 3 355 28 706 143 1258 480 1575 961 120 182
180 318 233 524 24 95 26 124 26 281 0 213 -15 276 -104 455 -45 92 -76 139
-132 201 -115 127 -194 193 -318 264 -41 24 -77 45 -79 47 -3 2 15 20 40 40
86 72 283 269 373 374 266 309 450 648 528 969 8 35 13 116 13 225 -1 157 -3
176 -28 250 -92 276 -335 458 -684 510 -119 18 -333 18 -468 -1z m290 -279
c245 -64 345 -239 332 -580 -6 -151 -21 -220 -92 -425 -41 -119 -181 -395
-255 -505 -124 -184 -348 -429 -420 -459 -19 -8 -89 -17 -155 -21 -246 -14
-412 -71 -569 -196 -27 -22 -50 -38 -52 -36 -18 18 196 820 445 1661 100 341
134 444 151 456 23 17 138 61 210 81 142 38 312 48 405 24z m-270 -2336 c52
-36 154 -141 194 -201 46 -69 88 -173 102 -253 25 -143 -3 -385 -67 -580 -187
-567 -734 -1065 -1284 -1169 -143 -28 -383 -16 -396 18 -13 33 437 2116 457
2116 3 0 12 -14 19 -30 53 -128 174 -189 307 -154 65 17 296 127 477 227 71
39 125 63 135 60 9 -4 34 -19 56 -34z"/>
<path d="M4595 1245 c-5 -2 -86 -11 -180 -20 -315 -30 -780 -100 -1090 -166
-450 -95 -1272 -342 -1343 -404 -5 -4 107 -225 129 -257 l19 -27 53 15 c28 9
122 37 207 64 659 207 1398 356 2135 431 66 6 123 17 127 23 10 14 10 101 1
239 -6 100 -7 107 -27 106 -12 0 -25 -2 -31 -4z"/>
</g>
</svg>
