<?xml version="1.0" encoding="utf-8"?>
<!-- Generator: Adobe Illustrator 22.1.0, SVG Export Plug-In . SVG Version: 6.00 Build 0)  -->
<svg version="1.1" id="Layer_1" xmlns="http://www.w3.org/2000/svg" xmlns:xlink="http://www.w3.org/1999/xlink" x="0px" y="0px"
	 width="32px" height="32px" viewBox="0 0 32 32" style="enable-background:new 0 0 32 32;" xml:space="preserve">
<style type="text/css">
	.st0{fill:#333333;}
</style>
<path id="octocat_stars_merged" class="st0" d="M28.5,21.5l-2,2l0.5,2.8c0,0,0,0.1,0,0.1c0,0.1,0,0.1-0.1,0.2c0,0.1-0.1,0.1-0.2,0.1
	c-0.1,0-0.2,0-0.2-0.1L24,25.3l-2.5,1.3c-0.1,0-0.1,0.1-0.2,0.1c-0.1,0-0.1,0-0.2-0.1c0-0.1-0.1-0.1-0.1-0.2c0,0,0-0.1,0-0.1
	l0.5-2.8l-2-2c-0.1-0.1-0.1-0.2-0.1-0.3c0-0.2,0.2-0.3,0.3-0.3l2.8-0.4l1.3-2.5c0-0.1,0.1-0.2,0.3-0.2c0.1,0,0.2,0.1,0.3,0.2
	l1.3,2.5l2.8,0.4c0.2,0,0.3,0.1,0.3,0.3C28.6,21.3,28.6,21.4,28.5,21.5z M7,20c0,0,0.1-0.1,0.2,0c0.1,0,0.1,0.1,0.1,0.2c0,0,0,0,0,0
	c0,0.1-0.1,0.1-0.1,0.1c0,0,0,0,0,0C7,20.1,7,20,7,20L7,20z M7.5,20.5c-0.1-0.1-0.1-0.2,0-0.2s0.1,0,0.2,0c0.1,0.1,0.1,0.2,0,0.2
	C7.6,20.6,7.5,20.6,7.5,20.5L7.5,20.5z M7.9,21.1c-0.1-0.1-0.1-0.2,0-0.2c0.1-0.1,0.1,0,0.2,0.1c0.1,0.1,0.1,0.2,0,0.2c0,0,0,0,0,0
	C8,21.2,7.9,21.2,7.9,21.1L7.9,21.1z M8.4,21.7c-0.1-0.1-0.1-0.2,0-0.3c0.1-0.1,0.2-0.1,0.3,0s0.1,0.2,0.1,0.3S8.5,21.8,8.4,21.7
	L8.4,21.7z M9,21.9c0-0.1,0.2-0.1,0.2-0.1c0,0,0,0,0,0c0.1,0,0.2,0.1,0.2,0.2s-0.1,0.1-0.3,0.1C9,22.1,8.9,22,9,21.9L9,21.9z
	 M9.8,22.1C9.8,22,9.9,22,10,22c0.1,0,0.2,0,0.2,0.1c0,0.1-0.1,0.1-0.2,0.1C9.9,22.3,9.8,22.2,9.8,22.1L9.8,22.1z M10.6,22.1
	c0-0.1,0-0.2,0.2-0.2c0.1,0,0.2,0,0.2,0.1c0,0,0,0,0,0c0,0.1,0,0.2-0.2,0.2S10.6,22.2,10.6,22.1L10.6,22.1z M23.4,15.6L21,19.1
	c0,0-3.2,0.7-3.6,1.9c-0.3,0.9,1.6,2.5,2.2,3c-0.8,0.6-1.8,1.1-2.7,1.4c-0.2,0.1-0.4,0-0.5-0.1c-0.1-0.1-0.2-0.2-0.2-0.4
	c0,0,0-0.4,0-1v-1.8c0.1-0.7-0.2-1.4-0.7-1.9c0.5,0,0.9-0.1,1.4-0.2c0.4-0.1,0.9-0.3,1.3-0.5c0.4-0.2,0.8-0.5,1.1-0.9
	c0.3-0.4,0.6-0.9,0.7-1.4c0.2-0.7,0.3-1.3,0.3-2c0-1-0.4-2-1.1-2.8c0.3-0.9,0.3-1.9-0.1-2.7c-0.4-0.1-0.7,0-1.1,0.1
	c-0.4,0.2-0.8,0.4-1.2,0.6l-0.5,0.3c-1.7-0.5-3.5-0.5-5.1,0c-0.1-0.1-0.3-0.2-0.6-0.4c-0.4-0.2-0.7-0.4-1.1-0.5
	C9,9.6,8.6,9.5,8.3,9.6c-0.4,0.9-0.4,1.8-0.1,2.7c-0.7,0.8-1.1,1.7-1.1,2.8c0,0.7,0.1,1.4,0.3,2c0.1,0.5,0.4,1,0.7,1.4
	c0.3,0.4,0.7,0.7,1.1,0.9c0.4,0.2,0.8,0.4,1.3,0.5c0.4,0.1,0.9,0.2,1.4,0.2c-0.4,0.4-0.6,0.9-0.7,1.4c-0.2,0.1-0.4,0.2-0.6,0.2
	c-0.3,0-0.5,0.1-0.8,0.1c-0.3,0-0.6-0.1-0.9-0.3c-0.3-0.2-0.6-0.5-0.7-0.8C8,20.4,7.7,20.2,7.5,20c-0.2-0.1-0.4-0.3-0.7-0.3l-0.3,0
	c-0.1,0-0.3,0-0.4,0.1c-0.1,0-0.1,0.1-0.1,0.2c0,0.1,0.1,0.1,0.1,0.2c0.1,0.1,0.1,0.1,0.2,0.2l0.1,0.1c0.2,0.1,0.4,0.3,0.6,0.5
	c0.2,0.2,0.3,0.4,0.4,0.7l0.1,0.3c0.1,0.3,0.3,0.6,0.6,0.8c0.3,0.2,0.6,0.3,0.9,0.4c0.3,0.1,0.6,0.1,0.9,0.1c0.2,0,0.5,0,0.7,0
	l0.3-0.1v1.2c0,0.5,0,0.7,0,0.7c0,0.2-0.1,0.3-0.2,0.4c-0.2,0.1-0.4,0.1-0.5,0.1c-2-0.7-3.8-2-5.1-3.7C2.9,18.4,2.7,14,4.7,10.5
	c0.9-1.6,2.2-2.8,3.7-3.7c3.2-1.8,7.1-1.8,10.3,0c1.6,0.9,2.8,2.2,3.7,3.7c0.8,1.4,1.3,3.1,1.4,4.8c0,0,0,0,0,0
	C23.7,15.2,23.5,15.4,23.4,15.6L23.4,15.6z"/>
</svg>
