<?xml version="1.0" encoding="utf-8"?>
<!-- Generator: Adobe Illustrator 22.1.0, SVG Export Plug-In . SVG Version: 6.00 Build 0)  -->
<svg version="1.1" id="Layer_1" xmlns="http://www.w3.org/2000/svg" xmlns:xlink="http://www.w3.org/1999/xlink" x="0px" y="0px"
	 width="32px" height="32px" viewBox="0 0 32 32" style="enable-background:new 0 0 32 32;" xml:space="preserve">
<style type="text/css">
	.st0{fill:none;stroke:#000000;stroke-width:2;}
	.st1{fill:none;}
</style>
<g transform="translate(-1926 -1302)">
	<g transform="translate(1928.323 1308.886)">
		<path class="st0" d="M20.9091,2.9336c3.0226,2.3556,4.6926,6.0476,4.4659,9.873"/>
		<path class="st0" d="M18.076,22.8246c-4.3225,1.9648-9.7972-0.0912-10.806-1.1981"/>
		<path class="st0" d="M2.252,10.2906c0.5757-4.9847,4.9787-8.511,6.464-8.728"/>
	</g>
	<g transform="translate(1936.182 1302)">
		<ellipse class="st1" cx="5.818" cy="7.2786" rx="5.818" ry="5.806"/>
		<ellipse class="st0" cx="5.818" cy="7.2786" rx="4.818" ry="4.806"/>
	</g>
	<g transform="translate(1926 1319.42)">
		<ellipse class="st1" cx="5.818" cy="7.2786" rx="5.818" ry="5.806"/>
		<ellipse class="st0" cx="5.818" cy="7.2786" rx="4.818" ry="4.806"/>
	</g>
	<g transform="translate(1946.364 1319.42)">
		<ellipse class="st1" cx="5.818" cy="7.2786" rx="5.818" ry="5.806"/>
		<ellipse class="st0" cx="5.818" cy="7.2786" rx="4.818" ry="4.806"/>
	</g>
</g>
</svg>
