<?xml version="1.0" encoding="utf-8"?>
<!-- Generator: Adobe Illustrator 22.1.0, SVG Export Plug-In . SVG Version: 6.00 Build 0)  -->
<svg version="1.1" id="Layer_1" xmlns="http://www.w3.org/2000/svg" xmlns:xlink="http://www.w3.org/1999/xlink" x="0px" y="0px"
	 width="32px" height="32px" viewBox="0 0 32 32" style="enable-background:new 0 0 32 32;" xml:space="preserve">
<style type="text/css">
	.st0{fill:none;}
	.st1{fill:none;stroke:#000000;}
</style>
<g transform="translate(-1925 -1340)">
	<rect x="1925" y="1340" class="st0" width="32" height="32"/>
	<path d="M1940.97,1362.667c-1.264,0.015-2.0391,1.1951-2.637,2.144c-0.7001,1.12-1.4401,2.275-2.385,3.7429
		c-0.1417,0.2533-0.3181,0.4855-0.524,0.6901l-1.908-2.244c0.1067-0.3342,0.2363-0.6606,0.3879-0.9771
		c1.3401-2.8669,3.0951-7.354,3.0951-11.3529c0-2.151-0.7511-3.261-2.6671-2.667c-0.9099,0.282-1.726,1.226-2.752,2.569
		c-0.1086,0.1141-0.207,0.2375-0.2939,0.369l-1.55-1.217l0.2-0.5c0,0,2.2311-3.5,3.692-3.8879c4.7633-1.2614,9.7728-1.2614,14.536,0
		c1.509,0.3999,2.939,2.224,3.9811,3.829c0.3739,0.5699,0.2279,0.447,0.2279,0.447l-1.4249,1.075
		c-0.0851-0.1006-0.1752-0.1967-0.27-0.288c-0.8118-1.0151-1.8411-1.835-3.012-2.399c-1.962-0.595-2.667,0.516-2.667,2.667
		c0,3.782,1.5699,8,3.1909,11.561c0.123,0.272,0.3091,0.786,0.3091,0.786l-1.738,1.986c0,0-0.212,0.328-0.964-0.838
		c-0.5551-0.86-1.3621-2.125-2.131-3.347c-0.6001-0.9559-1.384-2.1479-2.6671-2.1439L1940.97,1362.667z M1941,1340
		c2.2091,0,4,1.7909,4,4s-1.7909,4-4,4c-2.2092,0-4-1.7909-4-4S1938.7908,1340,1941,1340"/>
	<g transform="translate(1926.333 1353.333)">
		<circle class="st0" cx="2.667" cy="2.667" r="2.667"/>
		<circle class="st1" cx="2.667" cy="2.667" r="2.167"/>
	</g>
	<g transform="translate(1930.333 1366.667)">
		<circle class="st0" cx="2.667" cy="2.667" r="2.667"/>
		<circle class="st1" cx="2.667" cy="2.667" r="2.167"/>
	</g>
	<g transform="translate(1950.333 1353.333)">
		<circle class="st0" cx="2.667" cy="2.667" r="2.667"/>
		<circle class="st1" cx="2.667" cy="2.667" r="2.167"/>
	</g>
	<g transform="translate(1946.333 1366.667)">
		<circle class="st0" cx="2.667" cy="2.667" r="2.667"/>
		<circle class="st1" cx="2.667" cy="2.667" r="2.167"/>
	</g>
</g>
</svg>
