<?xml version="1.0" encoding="utf-8"?>
<!-- Generator: Adobe Illustrator 22.1.0, SVG Export Plug-In . SVG Version: 6.00 Build 0)  -->
<svg version="1.1" id="Layer_1" xmlns="http://www.w3.org/2000/svg" xmlns:xlink="http://www.w3.org/1999/xlink" x="0px" y="0px"
	 width="32px" height="32px" viewBox="0 0 32 32" style="enable-background:new 0 0 32 32;" xml:space="preserve">
<path d="M21.213,17.787l3.515-5.368l-0.605-0.541l-4.9,4.132c-1.4418-0.3012-2.8548,0.6235-3.156,2.0653
	c-0.3012,1.4418,0.6235,2.8548,2.0653,3.156s2.8548-0.6235,3.156-2.0653c0.0958-0.4585,0.0691-0.9341-0.0773-1.379H21.213z
	 M16,3.592V0h5.333v3.592C19.5698,3.2713,17.7632,3.2713,16,3.592z M27.8,6.344l1.876-1.876l1.885,1.885L29.8,8.115
	C29.1836,7.4702,28.5147,6.8778,27.8,6.344z M2.667,12h10.666v2.667H2.667V12z M0,17.333h10.667V20H0V17.333z M4,22.666h9.333v2.667
	H4V22.666z M32,18.666c0.0228,7.3454-5.9132,13.3184-13.2586,13.3413C15.1452,32.0185,11.6977,30.5728,9.185,28h4.373
	c1.5612,0.8724,3.3196,1.3312,5.108,1.333c5.8909,0.0574,10.713-4.6716,10.7704-10.5626S24.7648,8.0574,18.8738,8
	c-0.0689-0.0007-0.1379-0.0007-0.2068,0c-1.7884,0.0018-3.5468,0.4606-5.108,1.333H9.185
	c5.1322-5.255,13.5527-5.3546,18.8077-0.2224c2.5728,2.5127,4.0185,5.9602,4.0073,9.5564V18.666z"/>
</svg>
